<svg id="SvgjsSvg1001" width="475" height="300" xmlns="http://www.w3.org/2000/svg" version="1.1" xmlns:xlink="http://www.w3.org/1999/xlink" xmlns:svgjs="http://svgjs.com/svgjs"><defs id="SvgjsDefs1002"></defs><rect id="SvgjsRect1008" width="475" height="300" fill="#ffffff"></rect><g id="SvgjsG1013" transform="matrix(1,0,0,1,187.38625144958496,127.56399536132812)"><path id="SvgjsPath1014" d="M19.476000009536744 20.015999526977538Q19.476000009536744 22.28399952697754 18.783000009536742 23.948999526977538Q18.090000009536745 25.61399952697754 16.79400000953674 26.70299952697754Q15.498000009536742 27.791999526977538 13.617000009536744 28.33199952697754Q11.736000009536744 28.87199952697754 9.360000009536742 28.87199952697754Q4.086000009536743 28.87199952697754 0.10800000953674327 26.96399952697754Q1.2060000095367434 24.22799952697754 1.8360000095367432 21.95999952697754Q1.9440000095367433 21.58199952697754 2.052000009536743 21.311999526977537L4.752000009536743 21.97799952697754Q5.238000009536743 22.085999526977538 5.796000009536743 22.21199952697754Q6.354000009536743 22.33799952697754 6.912000009536744 22.436999526977537Q7.470000009536744 22.53599952697754 7.974000009536743 22.60799952697754Q8.478000009536743 22.67999952697754 8.856000009536743 22.67999952697754Q9.468000009536743 22.67999952697754 10.035000009536743 22.634999526977538Q10.602000009536743 22.58999952697754 11.034000009536744 22.427999526977537Q11.466000009536744 22.265999526977538 11.727000009536743 21.95999952697754Q11.988000009536742 21.65399952697754 11.988000009536742 21.131999526977538Q11.988000009536742 20.50199952697754 11.394000009536743 20.06999952697754Q10.800000009536744 19.637999526977538 9.909000009536744 19.29599952697754Q9.018000009536744 18.95399952697754 7.9560000095367425 18.674999526977537Q6.894000009536743 18.39599952697754 5.976000009536743 18.07199952697754Q4.698000009536743 17.67599952697754 3.6000000095367435 16.991999526977537Q2.502000009536743 16.30799952697754 1.701000009536743 15.36299952697754Q0.9000000095367433 14.417999526977539 0.45000000953674313 13.22099952697754Q9.536743172944284e-9 12.02399952697754 9.536743172944284e-9 10.58399952697754Q9.536743172944284e-9 2.3759995269775374 9.864000009536744 2.3759995269775374Q14.544000009536743 2.3759995269775374 18.57600000953674 4.31999952697754L16.596000009536745 9.827999526977539Q14.850000009536743 9.37799952697754 13.833000009536743 9.11699952697754Q12.816000009536744 8.855999526977538 12.204000009536744 8.72999952697754Q11.592000009536743 8.603999526977539 11.232000009536744 8.567999526977538Q10.872000009536743 8.53199952697754 10.476000009536744 8.53199952697754L9.864000009536744 8.53199952697754Q9.666000009536743 8.53199952697754 9.531000009536744 8.52299952697754Q9.396000009536744 8.513999526977539 9.270000009536743 8.513999526977539Q8.460000009536744 8.513999526977539 8.028000009536743 8.756999526977538Q7.596000009536743 8.99999952697754 7.596000009536743 9.75599952697754Q7.596000009536743 10.88999952697754 9.576000009536743 11.483999526977538Q14.454000009536744 12.617999526977538 16.965000009536745 14.777999526977538Q19.476000009536744 16.93799952697754 19.476000009536744 20.015999526977538ZM28.710000009536742 19.043999526977537Q28.710000009536742 20.05199952697754 29.007000009536743 20.80799952697754Q29.304000009536743 21.56399952697754 29.790000009536744 22.067999526977538Q30.276000009536745 22.57199952697754 30.90600000953674 22.823999526977538Q31.536000009536743 23.07599952697754 32.184000009536746 23.07599952697754Q32.83200000953674 23.07599952697754 33.453000009536744 22.823999526977538Q34.074000009536746 22.57199952697754 34.569000009536744 22.067999526977538Q35.06400000953674 21.56399952697754 35.361000009536745 20.80799952697754Q35.65800000953674 20.05199952697754 35.65800000953674 19.043999526977537Q35.65800000953674 18.03599952697754 35.361000009536745 17.27999952697754Q35.06400000953674 16.52399952697754 34.569000009536744 16.02899952697754Q34.074000009536746 15.533999526977539 33.453000009536744 15.28199952697754Q32.83200000953674 15.029999526977539 32.184000009536746 15.029999526977539Q31.536000009536743 15.029999526977539 30.90600000953674 15.28199952697754Q30.276000009536745 15.533999526977539 29.790000009536744 16.02899952697754Q29.304000009536743 16.52399952697754 29.007000009536743 17.27999952697754Q28.710000009536742 18.03599952697754 28.710000009536742 19.043999526977537ZM21.510000009536743 19.043999526977537Q21.600000009536743 16.72199952697754 22.473000009536744 14.95799952697754Q23.346000009536745 13.193999526977539 24.786000009536743 11.98799952697754Q26.226000009536744 10.78199952697754 28.125000009536745 10.169999526977538Q30.024000009536742 9.55799952697754 32.166000009536745 9.55799952697754Q34.50600000953674 9.55799952697754 36.450000009536744 10.259999526977538Q38.39400000953675 10.96199952697754 39.79800000953674 12.21299952697754Q41.20200000953675 13.463999526977538 41.97600000953674 15.209999526977539Q42.75000000953674 16.95599952697754 42.75000000953674 19.043999526977537Q42.75000000953674 20.73599952697754 42.309000009536746 22.10399952697754Q41.86800000953674 23.47199952697754 41.11200000953674 24.52499952697754Q40.35600000953674 25.57799952697754 39.33000000953675 26.35199952697754Q38.30400000953674 27.125999526977537 37.11600000953674 27.62099952697754Q35.928000009536746 28.11599952697754 34.65900000953674 28.349999526977538Q33.39000000953674 28.58399952697754 32.130000009536744 28.58399952697754Q29.754000009536743 28.58399952697754 27.801000009536743 27.890999526977538Q25.848000009536744 27.19799952697754 24.444000009536744 25.93799952697754Q23.040000009536744 24.67799952697754 22.275000009536743 22.922999526977538Q21.510000009536743 21.16799952697754 21.510000009536743 19.043999526977537ZM60.282000009536745 11.05199952697754L59.562000009536746 15.947999526977538Q57.61800000953674 15.335999526977538 55.962000009536744 15.335999526977538Q55.11600000953674 15.335999526977538 54.441000009536744 15.60599952697754Q53.76600000953675 15.87599952697754 53.28900000953674 16.36199952697754Q52.812000009536746 16.84799952697754 52.55100000953674 17.540999526977537Q52.29000000953674 18.23399952697754 52.29000000953674 19.079999526977538Q52.29000000953674 19.92599952697754 52.55100000953674 20.61899952697754Q52.812000009536746 21.311999526977537 53.29800000953674 21.81599952697754Q53.78400000953674 22.31999952697754 54.477000009536745 22.58999952697754Q55.17000000953674 22.85999952697754 56.03400000953674 22.85999952697754Q57.672000009536745 22.85999952697754 59.49000000953674 22.247999526977537L60.21000000953674 27.39599952697754Q58.824000009536746 28.11599952697754 57.501000009536746 28.349999526977538Q56.178000009536746 28.58399952697754 54.630000009536744 28.58399952697754Q52.45200000953675 28.58399952697754 50.61600000953674 27.89999952697754Q48.78000000953674 27.21599952697754 47.44800000953674 25.97399952697754Q46.11600000953674 24.73199952697754 45.36900000953674 22.97699952697754Q44.62200000953674 21.22199952697754 44.62200000953674 19.079999526977538Q44.62200000953674 16.93799952697754 45.43200000953674 15.18299952697754Q46.242000009536746 13.427999526977539 47.61900000953674 12.17699952697754Q48.99600000953674 10.925999526977538 50.81400000953674 10.24199952697754Q52.632000009536746 9.55799952697754 54.630000009536744 9.55799952697754Q55.51200000953674 9.55799952697754 56.22300000953674 9.620999526977538Q56.934000009536746 9.68399952697754 57.58200000953674 9.85499952697754Q58.230000009536745 10.02599952697754 58.87800000953674 10.31399952697754Q59.526000009536745 10.60199952697754 60.282000009536745 11.05199952697754ZM62.712000009536744 3.707999526977538Q62.712000009536744 2.8979995269775394 63.06300000953674 2.2139995269775383Q63.41400000953675 1.5299995269775408 63.99000000953674 1.0349995269775398Q64.56600000953674 0.5399995269775388 65.32200000953674 0.26999952697753926Q66.07800000953674 -4.730224603122224e-7 66.88800000953674 -4.730224603122224e-7Q67.82400000953675 -4.730224603122224e-7 68.58900000953675 0.3329995269775381Q69.35400000953675 0.6659995269775401 69.89400000953674 1.1969995269775389Q70.43400000953675 1.7279995269775377 70.73100000953674 2.3849995269775377Q71.02800000953674 3.0419995269775377 71.02800000953674 3.707999526977538Q71.02800000953674 4.5359995269775375 70.68600000953674 5.2199995269775386Q70.34400000953674 5.90399952697754 69.76800000953675 6.398999526977541Q69.19200000953674 6.893999526977538 68.44500000953674 7.172999526977538Q67.69800000953674 7.451999526977538 66.88800000953674 7.451999526977538Q66.00600000953675 7.451999526977538 65.24100000953675 7.163999526977538Q64.47600000953675 6.875999526977537 63.91800000953674 6.362999526977539Q63.36000000953675 5.849999526977538 63.03600000953675 5.17499952697754Q62.712000009536744 4.49999952697754 62.712000009536744 3.707999526977538ZM73.83600000953675 22.175999526977538L74.23200000953675 27.323999526977538Q72.05400000953674 28.58399952697754 69.40800000953675 28.58399952697754Q67.84200000953675 28.58399952697754 66.61800000953674 28.061999526977537Q65.39400000953674 27.53999952697754 64.55700000953674 26.576999526977538Q63.72000000953675 25.61399952697754 63.288000009536745 24.24599952697754Q62.85600000953674 22.87799952697754 62.85600000953674 21.20399952697754L62.85600000953674 9.827999526977539L70.66800000953674 9.827999526977539L70.66800000953674 20.84399952697754Q70.66800000953674 21.72599952697754 71.13600000953674 22.16699952697754Q71.60400000953675 22.60799952697754 72.32400000953675 22.60799952697754Q73.04400000953675 22.60799952697754 73.83600000953675 22.175999526977538ZM90.55800000953674 28.29599952697754L90.55800000953674 24.875999526977537Q89.69400000953674 26.675999526977538 88.21800000953674 27.62999952697754Q86.74200000953674 28.58399952697754 84.51000000953674 28.58399952697754Q82.71000000953674 28.58399952697754 81.07200000953674 27.85499952697754Q79.43400000953675 27.125999526977537 78.19200000953674 25.83899952697754Q76.95000000953674 24.55199952697754 76.21200000953674 22.78799952697754Q75.47400000953674 21.02399952697754 75.47400000953674 18.95399952697754Q75.47400000953674 16.90199952697754 76.22100000953674 15.17399952697754Q76.96800000953674 13.44599952697754 78.21900000953674 12.19499952697754Q79.47000000953675 10.943999526977539 81.09900000953674 10.250999526977537Q82.72800000953674 9.55799952697754 84.51000000953674 9.55799952697754Q85.42800000953675 9.55799952697754 86.31900000953674 9.800999526977538Q87.21000000953674 10.04399952697754 88.01100000953674 10.574999526977539Q88.81200000953675 11.105999526977538 89.46900000953674 11.91599952697754Q90.12600000953674 12.725999526977539 90.55800000953674 13.85999952697754L90.55800000953674 9.55799952697754L98.29800000953675 9.55799952697754L98.29800000953675 28.29599952697754L90.55800000953674 28.29599952697754ZM90.55800000953674 19.22399952697754L90.55800000953674 18.93599952697754Q90.52200000953674 18.21599952697754 90.21600000953674 17.567999526977538Q89.91000000953674 16.91999952697754 89.41500000953674 16.442999526977538Q88.92000000953675 15.965999526977539 88.27200000953674 15.686999526977539Q87.62400000953674 15.40799952697754 86.92200000953675 15.40799952697754Q86.13000000953674 15.40799952697754 85.45500000953675 15.70499952697754Q84.78000000953675 16.00199952697754 84.28500000953674 16.49699952697754Q83.79000000953674 16.991999526977537 83.50200000953674 17.65799952697754Q83.21400000953675 18.323999526977538 83.21400000953675 19.079999526977538Q83.21400000953675 19.87199952697754 83.52000000953674 20.54699952697754Q83.82600000953674 21.22199952697754 84.33900000953675 21.707999526977538Q84.85200000953674 22.19399952697754 85.51800000953675 22.47299952697754Q86.18400000953675 22.75199952697754 86.92200000953675 22.75199952697754Q87.67800000953675 22.75199952697754 88.32600000953674 22.46399952697754Q88.97400000953674 22.175999526977538 89.46000000953674 21.689999526977537Q89.94600000953675 21.20399952697754 90.23400000953674 20.564999526977537Q90.52200000953674 19.92599952697754 90.55800000953674 19.22399952697754ZM113.77800000953674 22.175999526977538L114.06600000953674 27.323999526977538Q111.56400000953674 28.58399952697754 108.52200000953674 28.58399952697754Q106.95600000953674 28.58399952697754 105.73200000953675 28.070999526977538Q104.50800000953674 27.55799952697754 103.67100000953674 26.59499952697754Q102.83400000953674 25.631999526977538 102.40200000953675 24.27299952697754Q101.97000000953675 22.91399952697754 101.97000000953675 21.20399952697754L101.97000000953675 3.9959995269775384L109.74600000953674 2.8439995269775373L109.74600000953674 20.66399952697754Q109.74600000953674 21.65399952697754 110.37600000953674 22.13099952697754Q111.00600000953675 22.60799952697754 112.08600000953675 22.60799952697754Q112.91400000953675 22.60799952697754 113.77800000953674 22.175999526977538ZM129.40200000953675 22.21199952697754Q130.03200000953674 22.21199952697754 130.57200000953674 22.14899952697754Q131.11200000953676 22.085999526977538 131.64300000953673 21.95999952697754Q132.17400000953674 21.83399952697754 132.73200000953673 21.63599952697754Q133.29000000953675 21.43799952697754 133.97400000953675 21.16799952697754L134.98200000953673 27.01799952697754Q131.77800000953675 28.87199952697754 127.99800000953675 28.87199952697754Q122.65200000953675 28.87199952697754 118.83600000953675 25.271999526977538Q114.84000000953674 21.52799952697754 114.78600000953675 15.60599952697754Q114.78600000953675 12.725999526977539 115.77600000953674 10.295999526977539Q116.76600000953674 7.865999526977539 118.51200000953675 6.11099952697754Q120.25800000953674 4.355999526977538 122.63400000953675 3.3749995269775397Q125.01000000953674 2.393999526977538 127.78200000953674 2.393999526977538Q131.72400000953675 2.393999526977538 134.94600000953673 4.22999952697754L133.97400000953675 9.95399952697754Q131.32800000953674 8.945999526977538 129.18600000953674 8.945999526977538Q126.18000000953674 8.945999526977538 124.62300000953674 10.68299952697754Q123.06600000953674 12.41999952697754 123.06600000953674 15.569999526977538Q123.06600000953674 17.13599952697754 123.48900000953674 18.36899952697754Q123.91200000953674 19.601999526977536 124.72200000953674 20.45699952697754Q125.53200000953674 21.311999526977537 126.71100000953675 21.76199952697754Q127.89000000953675 22.21199952697754 129.40200000953675 22.21199952697754ZM145.04400000953675 9.827999526977539L145.04400000953675 20.62799952697754Q145.04400000953675 21.113999526977537 145.23300000953674 21.518999526977538Q145.42200000953673 21.92399952697754 145.75500000953673 22.21199952697754Q146.08800000953676 22.49999952697754 146.52900000953673 22.66199952697754Q146.97000000953673 22.823999526977538 147.45600000953675 22.823999526977538Q147.92400000953674 22.823999526977538 148.33800000953676 22.65299952697754Q148.75200000953674 22.48199952697754 149.05800000953676 22.18499952697754Q149.36400000953674 21.887999526977538 149.54400000953675 21.491999526977537Q149.72400000953675 21.09599952697754 149.72400000953675 20.62799952697754L149.72400000953675 9.827999526977539L157.17600000953675 9.827999526977539L157.17600000953675 20.375999526977537Q157.17600000953675 22.28399952697754 156.43800000953675 23.80499952697754Q155.70000000953675 25.32599952697754 154.39500000953674 26.387999526977538Q153.09000000953674 27.44999952697754 151.30800000953676 28.01699952697754Q149.52600000953674 28.58399952697754 147.42000000953675 28.58399952697754Q145.35000000953676 28.58399952697754 143.53200000953674 28.03499952697754Q141.71400000953673 27.48599952697754 140.36400000953674 26.43299952697754Q139.01400000953674 25.37999952697754 138.23100000953676 23.84999952697754Q137.44800000953674 22.31999952697754 137.44800000953674 20.375999526977537L137.44800000953674 9.827999526977539L145.04400000953675 9.827999526977539ZM171.46800000953675 23.41799952697754Q173.98800000953673 23.41799952697754 176.90400000953673 22.12199952697754L177.80400000953674 27.07199952697754Q174.45600000953675 28.58399952697754 170.28000000953674 28.58399952697754Q167.95800000953673 28.58399952697754 166.04100000953673 27.87299952697754Q164.12400000953673 27.16199952697754 162.74700000953675 25.89299952697754Q161.37000000953674 24.62399952697754 160.60500000953675 22.87799952697754Q159.84000000953674 21.131999526977538 159.84000000953674 19.079999526977538Q159.84000000953674 16.91999952697754 160.64100000953675 15.164999526977539Q161.44200000953674 13.40999952697754 162.82800000953674 12.158999526977539Q164.21400000953673 10.907999526977537 166.06800000953675 10.23299952697754Q167.92200000953673 9.55799952697754 170.02800000953675 9.55799952697754Q172.15200000953675 9.55799952697754 173.75400000953675 10.268999526977538Q175.35600000953676 10.97999952697754 176.42700000953675 12.21299952697754Q177.49800000953675 13.44599952697754 178.02900000953673 15.09299952697754Q178.56000000953674 16.73999952697754 178.56000000953674 18.61199952697754Q178.56000000953674 18.863999526977537 178.54200000953674 19.09799952697754Q178.52400000953673 19.33199952697754 178.48800000953673 19.54799952697754L167.43600000953674 20.98799952697754Q167.86800000953673 22.28399952697754 168.87600000953674 22.85099952697754Q169.88400000953675 23.41799952697754 171.46800000953675 23.41799952697754ZM167.11200000953676 17.60399952697754L172.83600000953675 16.34399952697754Q172.20600000953675 14.039999526977539 170.02800000953675 14.039999526977539Q169.34400000953676 14.039999526977539 168.80400000953674 14.309999526977538Q168.26400000953674 14.57999952697754 167.89500000953674 15.056999526977538Q167.52600000953674 15.533999526977539 167.32800000953674 16.19099952697754Q167.13000000953673 16.84799952697754 167.11200000953676 17.60399952697754Z " fill="#7a0bdd"></path></g><g id="SvgjsG1015" transform="matrix(1,0,0,1,57.38625144958496,62)"><path id="color_1" d="M108.79747,53.00875H74.0717a2.61837,2.61837,0,0,0-2.6163,2.615v7.2783H64.1771a2.61837,2.61837,0,0,0-2.615,2.6163v7.2783h-7.2783a2.61836,2.61836,0,0,0-2.6163,2.615v33.96454a2.61919,2.61919,0,0,0,2.6163,2.615H89.00955a2.61809,2.61809,0,0,0,2.615-2.615v-7.2783h7.2783a2.61864,2.61864,0,0,0,2.6163-2.6163v-7.277h7.2783a2.61917,2.61917,0,0,0,2.615-2.6163V55.62377A2.61808,2.61808,0,0,0,108.79747,53.00875ZM91.43394,60.905a5.42514,5.42514,0,1,1-5.42578,5.42578A5.42617,5.42617,0,0,1,91.43394,60.905Zm10.20165,24.83885a.85777.85777,0,0,1-.85845.85845H82.09075a.85859.85859,0,0,1-.85845-.85845v-.513a10.20165,10.20165,0,1,1,20.40329,0Z" fill="#7a0bdd"></path></g></svg>